<?xml version="1.0" standalone="no"?>
<!DOCTYPE svg PUBLIC "-//W3C//DTD SVG 20010904//EN"
 "http://www.w3.org/TR/2001/REC-SVG-20010904/DTD/svg10.dtd">
<svg version="1.0" xmlns="http://www.w3.org/2000/svg"
 width="1280.000000pt" height="1274.000000pt" viewBox="0 0 1280.000000 1274.000000"
 preserveAspectRatio="xMidYMid meet">
<g transform="translate(0.000000,1274.000000) scale(0.100000,-0.100000)"
fill="#000000" stroke="none">
<path d="M6055 12730 c-49 -4 -162 -13 -250 -20 -837 -59 -1579 -255 -2290
-605 -518 -255 -940 -541 -1385 -941 -139 -125 -423 -411 -546 -549 -917
-1037 -1438 -2271 -1548 -3670 -49 -618 -49 -651 5 -1260 91 -1034 413 -1974
964 -2810 257 -391 529 -719 887 -1070 512 -505 1017 -867 1623 -1165 823
-406 1656 -600 2735 -637 170 -6 280 -1 705 33 1053 84 2004 395 2855 933 856
542 1641 1360 2165 2256 111 188 294 562 374 762 232 579 370 1177 420 1818 6
72 15 198 22 281 24 301 -17 962 -87 1414 -181 1172 -615 2144 -1358 3040
-148 180 -577 609 -751 754 -892 741 -1905 1184 -3101 1355 -467 67 -1165 106
-1439 81z m596 -3160 c674 -67 1248 -345 1744 -844 621 -625 951 -1374 995
-2262 39 -799 -172 -1476 -656 -2104 -109 -142 -423 -459 -564 -571 -240 -189
-546 -363 -810 -459 -153 -56 -384 -114 -561 -142 -124 -19 -184 -22 -439 -23
-195 0 -326 4 -385 13 -594 87 -1076 329 -1519 761 -534 522 -867 1119 -995
1781 -89 460 -68 1049 54 1533 158 623 500 1201 959 1619 216 196 389 314 641
438 289 141 599 228 925 259 126 12 493 12 611 1z"/>
</g>
</svg>
